<?xml version="1.0" standalone="no"?>
<!DOCTYPE svg PUBLIC "-//W3C//DTD SVG 20010904//EN"
 "http://www.w3.org/TR/2001/REC-SVG-20010904/DTD/svg10.dtd">
<svg version="1.0" xmlns="http://www.w3.org/2000/svg"
 width="401.000000pt" height="401.000000pt" viewBox="0 0 401.000000 401.000000"
 preserveAspectRatio="xMidYMid meet">
<metadata>
Created by potrace 1.14, written by Peter Selinger 2001-2017
</metadata>
<g transform="translate(0.000000,401.000000) scale(0.100000,-0.100000)"
fill="#000000" stroke="none">
<path d="M2753 3997 c-3 -4 -5 -116 -5 -248 l0 -240 -37 22 c-117 72 -194 112
-261 138 -338 128 -712 107 -1030 -61 -346 -182 -579 -501 -655 -898 -15 -76
-14 -334 1 -418 69 -389 305 -713 654 -900 65 -35 194 -87 240 -97 8 -2 35 -8
60 -14 25 -5 59 -13 75 -16 50 -11 316 -14 375 -5 106 18 126 22 205 47 277
86 519 271 679 520 58 90 122 229 142 308 2 6 10 35 18 65 8 30 18 71 22 90 4
19 9 413 11 875 l4 840 -247 0 c-135 0 -248 -4 -251 -8z m-551 -776 c37 -12
70 -22 73 -22 8 1 116 -60 155 -86 19 -12 57 -44 84 -70 161 -156 240 -350
231 -568 -6 -131 -23 -200 -77 -309 -43 -86 -63 -112 -153 -201 -143 -142
-306 -209 -515 -209 -213 0 -378 69 -531 223 -71 72 -94 104 -133 182 -59 121
-77 190 -81 314 -9 250 98 472 300 626 81 61 216 121 305 135 19 3 36 7 38 9
2 2 56 2 120 0 87 -2 135 -8 184 -24z"/>
<path d="M766 1252 c-17 -4 -18 -12 -12 -104 4 -55 9 -104 11 -108 3 -4 7 -25
11 -46 20 -130 109 -333 203 -464 202 -283 494 -463 837 -517 102 -16 337 -9
434 13 14 3 39 8 55 10 49 9 215 74 285 111 222 120 409 311 527 538 30 59
107 265 98 265 -3 0 0 11 5 24 13 34 24 129 24 211 l1 70 -39 -4 c-193 -16
-368 -110 -484 -260 -24 -31 -53 -74 -64 -96 -95 -184 -299 -334 -518 -379
-75 -15 -236 -13 -300 4 -25 7 -52 13 -61 15 -37 7 -156 68 -213 109 -97 69
-188 176 -245 289 -56 109 -225 243 -362 286 -54 17 -172 37 -193 33z"/>
</g>
</svg>
